<svg width="24" height="24" viewBox="0 0 24 24" fill="none" xmlns="http://www.w3.org/2000/svg">
<path opacity="0.4" d="M16.3403 1.99982H7.67031C4.28031 1.99982 2.00031 4.37982 2.00031 7.91982V16.0898C2.00031 19.6198 4.28031 21.9998 7.67031 21.9998H16.3403C19.7303 21.9998 22.0003 19.6198 22.0003 16.0898V7.91982C22.0003 4.37982 19.7303 1.99982 16.3403 1.99982Z" fill="#EC5F5F"/>
<path d="M10.8134 15.2479C10.5894 15.2479 10.3654 15.1629 10.1944 14.9919L7.82141 12.6189C7.47941 12.2769 7.47941 11.7229 7.82141 11.3819C8.16341 11.0399 8.71641 11.0389 9.05841 11.3809L10.8134 13.1359L14.9414 9.0079C15.2834 8.6659 15.8364 8.6659 16.1784 9.0079C16.5204 9.3499 16.5204 9.9039 16.1784 10.2459L11.4324 14.9919C11.2614 15.1629 11.0374 15.2479 10.8134 15.2479Z" fill="#EC5F5F"/>
</svg>
