<svg width="24" height="24" viewBox="0 0 24 24" fill="none" xmlns="http://www.w3.org/2000/svg">
<path fill-rule="evenodd" clip-rule="evenodd" d="M6.11304 4.5H11.9051C14.3271 4.5 16.0181 6.16904 16.0181 8.56091V15.4391C16.0181 17.831 14.3271 19.5 11.9051 19.5H6.11304C3.69102 19.5 2 17.831 2 15.4391V8.56091C2 6.16904 3.69102 4.5 6.11304 4.5ZM19.958 6.87897C20.397 6.65562 20.912 6.67897 21.3311 6.94292C21.7501 7.20587 22.0001 7.66272 22.0001 8.16221V15.8384C22.0001 16.3389 21.7501 16.7947 21.3311 17.0576C21.102 17.2008 20.846 17.2739 20.588 17.2739C20.373 17.2739 20.158 17.2231 19.957 17.1206L18.476 16.3734C17.928 16.0952 17.588 15.5368 17.588 14.9165V9.08303C17.588 8.46171 17.928 7.90333 18.476 7.62719L19.958 6.87897Z" fill="#EC5F5F"/>
</svg>
