<svg width="24" height="24" viewBox="0 0 24 24" fill="none" xmlns="http://www.w3.org/2000/svg">
<path fill-rule="evenodd" clip-rule="evenodd" d="M14.3764 12.4769C16.0463 10.1337 15.8301 6.85958 13.7279 4.75736C11.3848 2.41421 7.58578 2.41421 5.24263 4.75736C2.89949 7.1005 2.89949 10.8995 5.24263 13.2426C7.34486 15.3449 10.6189 15.561 12.9621 13.8911L18.6777 19.6066L20.0919 18.1924L14.3764 12.4769ZM12.3137 6.17157C13.8758 7.73367 13.8758 10.2663 12.3137 11.8284C10.7516 13.3905 8.21895 13.3905 6.65685 11.8284C5.09475 10.2663 5.09475 7.73367 6.65685 6.17157C8.21895 4.60948 10.7516 4.60948 12.3137 6.17157Z" fill="#EC5F5F"/>
</svg>
